<svg data-v-423bf9ae="" xmlns="http://www.w3.org/2000/svg" viewBox="0 0 745 90" class="iconLeftSlogan"><!----><!----><!----><g data-v-423bf9ae="" id="b71774b6-20c2-47c4-895f-3e4376da41cc" fill="white" transform="matrix(5.8365760270947415,0,0,5.8365760270947415,94.72566172364071,-16.80934010281313)"><path d="M9.38 10.19L9.38 10.19Q8.67 13.16 5.11 13.16L5.11 13.16L5.11 13.16Q3.65 13.16 2.60 12.60L2.60 12.60L2.60 12.60Q1.54 12.04 0.97 10.97L0.97 10.97L0.97 10.97Q0.41 9.90 0.41 8.40L0.41 8.40L0.41 8.40Q0.41 6.90 0.97 5.83L0.97 5.83L0.97 5.83Q1.54 4.76 2.60 4.20L2.60 4.20L2.60 4.20Q3.65 3.64 5.11 3.64L5.11 3.64L5.11 3.64Q6.73 3.64 7.88 4.33L7.88 4.33L7.88 4.33Q9.03 5.03 9.31 6.44L9.31 6.44L6.51 7.53L6.51 7.53Q6.40 6.68 6.10 6.38L6.10 6.38L6.10 6.38Q5.81 6.09 5.19 6.09L5.19 6.09L5.19 6.09Q4.47 6.09 4.10 6.65L4.10 6.65L4.10 6.65Q3.74 7.21 3.74 8.40L3.74 8.40L3.74 8.40Q3.74 9.59 4.09 10.15L4.09 10.15L4.09 10.15Q4.44 10.71 5.17 10.71L5.17 10.71L5.17 10.71Q5.82 10.71 6.12 10.42L6.12 10.42L6.12 10.42Q6.41 10.12 6.50 9.45L6.50 9.45L9.38 10.19ZM15.43 5.88L15.43 5.88Q16.46 5.88 17.05 6.50L17.05 6.50L17.05 6.50Q17.63 7.11 17.63 8.23L17.63 8.23L17.63 13.02L14.41 13.02L14.41 9.07L14.41 9.07Q14.41 8.61 14.29 8.43L14.29 8.43L14.29 8.43Q14.18 8.25 13.92 8.25L13.92 8.25L13.92 8.25Q13.57 8.25 13.40 8.51L13.40 8.51L13.40 8.51Q13.24 8.78 13.24 9.35L13.24 9.35L13.24 13.02L10.02 13.02L10.02 3.22L13.24 3.22L13.24 7.45L13.24 7.45Q13.52 6.68 14.08 6.28L14.08 6.28L14.08 6.28Q14.64 5.88 15.43 5.88L15.43 5.88ZM26.17 11.30L26.17 11.30Q26.40 11.30 26.52 11.24L26.52 11.24L26.26 12.88L26.26 12.88Q25.79 13.16 25.23 13.16L25.23 13.16L25.23 13.16Q24.37 13.16 23.80 12.86L23.80 12.86L23.80 12.86Q23.23 12.56 23.03 11.98L23.03 11.98L23.03 11.98Q22.71 12.53 22.09 12.84L22.09 12.84L22.09 12.84Q21.46 13.16 20.54 13.16L20.54 13.16L20.54 13.16Q19.45 13.16 18.91 12.73L18.91 12.73L18.91 12.73Q18.38 12.31 18.38 11.49L18.38 11.49L18.38 11.49Q18.38 10.61 19.01 10.09L19.01 10.09L19.01 10.09Q19.64 9.56 21.11 9.24L21.11 9.24L22.50 8.93L22.50 8.65L22.50 8.65Q22.50 8.33 22.34 8.15L22.34 8.15L22.34 8.15Q22.18 7.97 21.87 7.97L21.87 7.97L21.87 7.97Q21.53 7.97 21.34 8.15L21.34 8.15L21.34 8.15Q21.14 8.34 21.13 8.82L21.13 8.82L18.47 8.41L18.47 8.41Q18.58 7.21 19.47 6.54L19.47 6.54L19.47 6.54Q20.37 5.88 22.05 5.88L22.05 5.88L22.05 5.88Q23.91 5.88 24.80 6.59L24.80 6.59L24.80 6.59Q25.69 7.31 25.69 8.76L25.69 8.76L25.69 10.72L25.69 10.72Q25.69 11.30 26.17 11.30L26.17 11.30ZM21.90 11.41L21.90 11.41Q22.16 11.41 22.33 11.23L22.33 11.23L22.33 11.23Q22.50 11.06 22.50 10.72L22.50 10.72L22.50 10.05L22.04 10.19L22.04 10.19Q21.74 10.28 21.57 10.46L21.57 10.46L21.57 10.46Q21.41 10.65 21.41 10.92L21.41 10.92L21.41 10.92Q21.41 11.16 21.55 11.28L21.55 11.28L21.55 11.28Q21.69 11.41 21.90 11.41L21.90 11.41ZM31.32 3.22L34.54 3.22L34.54 13.02L31.64 13.02L31.54 11.63L31.54 11.63Q31.23 12.35 30.67 12.75L30.67 12.75L30.67 12.75Q30.11 13.16 29.33 13.16L29.33 13.16L29.33 13.16Q28.04 13.16 27.35 12.22L27.35 12.22L27.35 12.22Q26.66 11.28 26.66 9.56L26.66 9.56L26.66 9.56Q26.66 7.81 27.36 6.85L27.36 6.85L27.36 6.85Q28.07 5.88 29.34 5.88L29.34 5.88L29.34 5.88Q30.06 5.88 30.55 6.23L30.55 6.23L30.55 6.23Q31.04 6.58 31.32 7.20L31.32 7.20L31.32 3.22ZM30.63 10.91L30.63 10.91Q30.97 10.91 31.14 10.59L31.14 10.59L31.14 10.59Q31.32 10.28 31.32 9.58L31.32 9.58L31.32 9.46L31.32 9.46Q31.32 8.79 31.15 8.47L31.15 8.47L31.15 8.47Q30.98 8.15 30.63 8.15L30.63 8.15L30.63 8.15Q30.27 8.15 30.09 8.44L30.09 8.44L30.09 8.44Q29.90 8.74 29.90 9.52L29.90 9.52L29.90 9.52Q29.90 10.30 30.09 10.61L30.09 10.61L30.09 10.61Q30.27 10.91 30.63 10.91L30.63 10.91ZM39.27 5.88L39.27 5.88Q41.13 5.88 42.15 6.83L42.15 6.83L42.15 6.83Q43.18 7.78 43.18 9.52L43.18 9.52L43.18 9.52Q43.18 11.26 42.15 12.21L42.15 12.21L42.15 12.21Q41.13 13.16 39.27 13.16L39.27 13.16L39.27 13.16Q37.41 13.16 36.39 12.21L36.39 12.21L36.39 12.21Q35.36 11.26 35.36 9.52L35.36 9.52L35.36 9.52Q35.36 7.78 36.39 6.83L36.39 6.83L36.39 6.83Q37.41 5.88 39.27 5.88L39.27 5.88ZM39.27 8.05L39.27 8.05Q38.99 8.05 38.85 8.18L38.85 8.18L38.85 8.18Q38.71 8.30 38.65 8.61L38.65 8.61L38.65 8.61Q38.60 8.92 38.60 9.52L38.60 9.52L38.60 9.52Q38.60 10.12 38.65 10.43L38.65 10.43L38.65 10.43Q38.71 10.74 38.85 10.86L38.85 10.86L38.85 10.86Q38.99 10.99 39.27 10.99L39.27 10.99L39.27 10.99Q39.55 10.99 39.69 10.86L39.69 10.86L39.69 10.86Q39.83 10.74 39.89 10.43L39.89 10.43L39.89 10.43Q39.94 10.12 39.94 9.52L39.94 9.52L39.94 9.52Q39.94 8.92 39.89 8.61L39.89 8.61L39.89 8.61Q39.83 8.30 39.69 8.18L39.69 8.18L39.69 8.18Q39.55 8.05 39.27 8.05L39.27 8.05ZM46.24 3.64L45.79 7.80L43.74 7.80L43.74 3.64L46.24 3.64ZM50.47 13.16L50.47 13.16Q49.17 13.16 48.27 12.91L48.27 12.91L48.27 12.91Q47.38 12.67 46.76 12.12L46.76 12.12L48.17 10.42L48.17 10.42Q48.58 10.78 49.11 11.00L49.11 11.00L49.11 11.00Q49.64 11.23 50.23 11.23L50.23 11.23L50.23 11.23Q50.50 11.23 50.67 11.18L50.67 11.18L50.67 11.18Q50.85 11.13 50.85 11.02L50.85 11.02L50.85 11.02Q50.85 10.89 50.61 10.79L50.61 10.79L50.61 10.79Q50.37 10.68 49.80 10.57L49.80 10.57L49.80 10.57Q48.29 10.28 47.59 9.72L47.59 9.72L47.59 9.72Q46.90 9.17 46.90 8.32L46.90 8.32L46.90 8.32Q46.90 7.70 47.31 7.15L47.31 7.15L47.31 7.15Q47.73 6.59 48.58 6.24L48.58 6.24L48.58 6.24Q49.43 5.88 50.69 5.88L50.69 5.88L50.69 5.88Q51.93 5.88 52.76 6.17L52.76 6.17L52.76 6.17Q53.59 6.47 54.07 6.90L54.07 6.90L52.75 8.46L52.75 8.46Q52.11 7.81 50.85 7.81L50.85 7.81L50.85 7.81Q50.47 7.81 50.30 7.88L50.30 7.88L50.30 7.88Q50.13 7.95 50.13 8.06L50.13 8.06L50.13 8.06Q50.13 8.23 50.99 8.34L50.99 8.34L50.99 8.34Q52.60 8.57 53.34 9.12L53.34 9.12L53.34 9.12Q54.08 9.67 54.08 10.64L54.08 10.64L54.08 10.64Q54.08 11.73 53.19 12.45L53.19 12.45L53.19 12.45Q52.29 13.16 50.47 13.16L50.47 13.16ZM64.13 13.02L62.41 9.56L61.66 10.60L61.66 13.02L58.39 13.02L58.39 3.78L61.66 3.78L61.66 7.22L64.06 3.78L67.54 3.78L64.71 7.45L67.79 13.02L64.13 13.02ZM69.89 5.57L69.89 5.57Q68.94 5.57 68.54 5.26L68.54 5.26L68.54 5.26Q68.14 4.96 68.14 4.23L68.14 4.23L68.14 4.23Q68.14 3.50 68.54 3.19L68.54 3.19L68.54 3.19Q68.94 2.88 69.89 2.88L69.89 2.88L69.89 2.88Q70.84 2.88 71.24 3.19L71.24 3.19L71.24 3.19Q71.64 3.50 71.64 4.23L71.64 4.23L71.64 4.23Q71.64 4.96 71.24 5.26L71.24 5.26L71.24 5.26Q70.84 5.57 69.89 5.57L69.89 5.57ZM71.50 6.02L71.50 13.02L68.28 13.02L68.28 6.02L71.50 6.02ZM78.08 10.86L78.22 12.68L78.22 12.68Q77.87 12.89 77.27 13.03L77.27 13.03L77.27 13.03Q76.68 13.16 76.13 13.16L76.13 13.16L76.13 13.16Q74.62 13.16 73.88 12.58L73.88 12.58L73.88 12.58Q73.14 12.00 73.14 10.67L73.14 10.67L73.14 8.19L72.06 8.19L72.06 6.02L73.14 6.02L73.14 4.54L76.36 3.64L76.36 6.02L78.12 6.02L78.12 8.19L76.36 8.19L76.36 10.16L76.36 10.16Q76.36 10.64 76.56 10.84L76.56 10.84L76.56 10.84Q76.76 11.05 77.20 11.05L77.20 11.05L77.20 11.05Q77.71 11.05 78.08 10.86L78.08 10.86ZM82.43 5.88L82.43 5.88Q84.38 5.88 85.24 6.57L85.24 6.57L85.24 6.57Q86.10 7.27 86.13 8.26L86.13 8.26L83.16 9.13L83.16 9.13Q83.20 8.05 82.60 8.05L82.60 8.05L82.60 8.05Q82.17 8.05 81.98 8.38L81.98 8.38L81.98 8.38Q81.79 8.71 81.79 9.56L81.79 9.56L81.79 9.56Q81.79 10.40 81.99 10.70L81.99 10.70L81.99 10.70Q82.19 10.99 82.59 10.99L82.59 10.99L82.59 10.99Q82.88 10.99 83.03 10.76L83.03 10.76L83.03 10.76Q83.19 10.53 83.22 10.07L83.22 10.07L86.10 10.96L86.10 10.96Q86.10 11.56 85.69 12.06L85.69 12.06L85.69 12.06Q85.27 12.56 84.48 12.86L84.48 12.86L84.48 12.86Q83.69 13.16 82.60 13.16L82.60 13.16L82.60 13.16Q80.61 13.16 79.58 12.22L79.58 12.22L79.58 12.22Q78.55 11.28 78.55 9.52L78.55 9.52L78.55 9.52Q78.55 7.78 79.57 6.83L79.57 6.83L79.57 6.83Q80.58 5.88 82.43 5.88L82.43 5.88ZM92.29 5.88L92.29 5.88Q93.32 5.88 93.91 6.50L93.91 6.50L93.91 6.50Q94.49 7.11 94.49 8.23L94.49 8.23L94.49 13.02L91.27 13.02L91.27 9.07L91.27 9.07Q91.27 8.61 91.15 8.43L91.15 8.43L91.15 8.43Q91.04 8.25 90.78 8.25L90.78 8.25L90.78 8.25Q90.43 8.25 90.27 8.51L90.27 8.51L90.27 8.51Q90.10 8.78 90.10 9.35L90.10 9.35L90.10 13.02L86.88 13.02L86.88 3.22L90.10 3.22L90.10 7.45L90.10 7.45Q90.38 6.68 90.94 6.28L90.94 6.28L90.94 6.28Q91.50 5.88 92.29 5.88L92.29 5.88ZM102.90 9.30L102.90 9.30Q102.90 9.83 102.83 10.14L102.83 10.14L98.38 10.14L98.38 10.14Q98.45 10.65 98.67 10.84L98.67 10.84L98.67 10.84Q98.90 11.02 99.34 11.02L99.34 11.02L99.34 11.02Q100.03 11.02 100.18 10.42L100.18 10.42L102.77 11.12L102.77 11.12Q102.54 12.12 101.61 12.64L101.61 12.64L101.61 12.64Q100.67 13.16 99.34 13.16L99.34 13.16L99.34 13.16Q97.36 13.16 96.33 12.22L96.33 12.22L96.33 12.22Q95.30 11.28 95.30 9.52L95.30 9.52L95.30 9.52Q95.30 7.78 96.31 6.83L96.31 6.83L96.31 6.83Q97.33 5.88 99.18 5.88L99.18 5.88L99.18 5.88Q100.98 5.88 101.94 6.80L101.94 6.80L101.94 6.80Q102.90 7.73 102.90 9.30L102.90 9.30ZM99.19 8.01L99.19 8.01Q98.83 8.01 98.63 8.22L98.63 8.22L98.63 8.22Q98.43 8.43 98.38 8.95L98.38 8.95L99.89 8.95L99.89 8.95Q99.85 8.47 99.69 8.24L99.69 8.24L99.69 8.24Q99.53 8.01 99.19 8.01L99.19 8.01ZM109.13 5.88L109.13 5.88Q110.17 5.88 110.75 6.50L110.75 6.50L110.75 6.50Q111.33 7.11 111.33 8.23L111.33 8.23L111.33 13.02L108.11 13.02L108.11 9.07L108.11 9.07Q108.11 8.61 108.00 8.43L108.00 8.43L108.00 8.43Q107.88 8.26 107.62 8.26L107.62 8.26L107.62 8.26Q107.27 8.26 107.11 8.53L107.11 8.53L107.11 8.53Q106.95 8.79 106.95 9.35L106.95 9.35L106.95 13.02L103.73 13.02L103.73 6.02L106.62 6.02L106.69 7.55L106.69 7.55Q107.00 6.73 107.62 6.31L107.62 6.31L107.62 6.31Q108.23 5.88 109.13 5.88L109.13 5.88Z"></path></g><!----><g data-v-423bf9ae="" id="e17d0ef2-30f4-45b0-94b9-012d62c77e64" transform="matrix(1.4168296807254508,0,0,1.4168296807254508,-7.9727683874556945,-1.5201600232445287)" stroke="none" fill="white"><path d="M21.11 1.25c-1.29 0-2.34 1.05-2.34 2.34v8.55c0 .48-.39.88-.95.88a.87.87 0 0 1-.87-.87V3.59c0-1.29-1.05-2.34-2.34-2.34-1.29 0-2.33 1.05-2.33 2.34v8.48c0 .44-.27.82-.64.91a.862.862 0 0 1-1.1-.83V3.59c0-1.29-1.05-2.34-2.41-2.34-1.29 0-2.34 1.05-2.34 2.34V15.4c0 2.37.92 4.59 2.63 6.3 2.3 2.3 3.51 5.33 3.33 8.31L9.92 59.72c0 .02-.01.1-.01.12 0 .06-.01.11-.01.17 0 2.61 2.13 4.74 4.75 4.74 1.31 0 2.57-.55 3.46-1.5.9-.96 1.35-2.22 1.27-3.53l-1.82-29.7c-.19-3.08.99-6.07 3.22-8.2a8.773 8.773 0 0 0 2.76-6.42V3.59c-.01-1.29-1.06-2.34-2.43-2.34zm-3.23 58.57a3.2 3.2 0 0 1-.86 2.41c-.62.66-1.46 1.02-2.36 1.02-1.79 0-3.25-1.45-3.24-3.31 0-.06.01-.11.01-.13l1.83-29.71c.07-1.15-.05-2.3-.33-3.42.56.08 1.14.14 1.74.14.59 0 1.16-.05 1.71-.13-.26 1.11-.37 2.25-.3 3.42l1.8 29.71zm4.15-44.42c0 2.04-.81 3.93-2.29 5.34a11.97 11.97 0 0 0-2.9 4.33c-1.36.31-3.01.32-4.44-.02-.65-1.61-1.65-3.13-2.96-4.45a7.322 7.322 0 0 1-2.16-5.21V3.59c0-.47.38-.84.91-.84.47 0 .84.38.84.84v8.56c0 .73.33 1.42.91 1.87.58.45 1.33.6 2.06.42 1.04-.26 1.77-1.24 1.77-2.37V3.59c0-.47.37-.84.83-.84.47 0 .84.38.84.84v8.56c0 1.3 1.06 2.37 2.44 2.37 1.31 0 2.38-1.07 2.38-2.38V3.59c0-.47.38-.84.92-.84.47 0 .84.38.84.84V15.4zM36.3 1.25c-5.44 0-9.86 7.09-9.86 15.8 0 1.26.1 2.45.3 3.52 0 .01 0 .02.01.03.06.35.14.68.22 1.01.04.16.09.32.14.48.05.16.09.32.14.47.07.21.15.42.23.62.03.08.06.17.1.25.1.23.2.45.31.67.02.05.05.09.07.14.12.23.25.45.38.67.02.03.03.05.05.08.14.22.29.43.44.64.01.02.03.04.04.06.16.2.32.4.5.59l.04.04c.37.4.78.76 1.22 1.08 1.88 1.35 2.95 3.72 2.8 6.19l-1.62 26.4v.11c0 .05-.01.11-.01.17 0 2.48 2.02 4.5 4.5 4.5 1.26 0 2.42-.5 3.28-1.42.86-.91 1.29-2.11 1.22-3.36l-1.62-26.4c-.15-2.47.92-4.84 2.81-6.19 1.57-1.12 2.7-2.75 3.39-4.84.02-.07.04-.14.06-.2.07-.24.15-.47.21-.72.08-.33.16-.67.22-1.01 0-.01 0-.03.01-.05.2-1.08.29-2.26.29-3.51-.01-8.73-4.43-15.82-9.87-15.82zm3 58.82c.05.84-.24 1.63-.81 2.24-.57.61-1.35.94-2.19.94-1.65 0-3-1.35-3-3.06 0-.05.01-.11.01-.12l1.62-26.4c.11-1.74-.31-3.43-1.11-4.87.78.18 1.6.28 2.48.28.88 0 1.71-.1 2.49-.28a8.922 8.922 0 0 0-1.12 4.87l1.63 26.4zm5.08-39.75v.03c-.02.08-.04.16-.05.24-.04.22-.09.43-.14.63-.05.19-.1.37-.16.54-.03.09-.05.17-.08.26-.07.22-.15.44-.24.65-.01.03-.02.06-.03.08-1.29 3.12-3.85 4.81-7.38 4.81-2.71 0-4.84-.99-6.27-2.87-.01-.02-.03-.04-.04-.06-.12-.16-.24-.33-.35-.51-.03-.04-.05-.08-.08-.13-.1-.16-.19-.33-.28-.51-.04-.07-.07-.14-.1-.21-.08-.16-.15-.32-.22-.49-.04-.1-.08-.21-.13-.32-.06-.14-.11-.29-.16-.44-.05-.16-.1-.33-.15-.5-.03-.11-.07-.22-.09-.33-.07-.29-.14-.59-.2-.9v-.01c-.18-.99-.28-2.08-.28-3.25 0-7.75 3.83-14.3 8.36-14.3s8.36 6.55 8.36 14.3c-.01 1.2-.1 2.3-.29 3.29zM52.05 1.41a.756.756 0 0 0-.79-.09c-.26.13-.43.39-.43.68v33.48c-.33.06-.59.33-.61.68l-1.44 23.36c0 .02-.01.11-.01.12 0 .06-.01.12-.01.18 0 2.72 2.21 4.93 4.93 4.93 1.38 0 2.66-.55 3.6-1.55s1.42-2.31 1.33-3.68L57.2 36.15a.71.71 0 0 0-.13-.35 9.895 9.895 0 0 0 1.76-4.57l1.22-10.17c.95-7.45-2.12-14.98-8-19.65zm4.16 60.76a3.41 3.41 0 0 1-2.51 1.08c-1.89 0-3.43-1.54-3.43-3.51 0-.06.01-.12.01-.13l1.39-22.66h4.07l1.39 22.66c.07.95-.26 1.86-.92 2.56zm2.35-41.29l-1.22 10.18a8.409 8.409 0 0 1-1.88 4.39h-3.13V3.64c4.68 4.37 7.05 10.83 6.23 17.24z"></path></g><!----><g data-v-423bf9ae="" id="353ac9ec-221d-4aad-ab25-b726ccb58c7b" fill="white" transform="matrix(1.8960805907500078,0,0,1.8960805907500078,96.26541731502329,56.01822978943858)"><path d="M1.75 4.65C1.75 4.03 2.11 3.08 4.21 3.08C5.91 3.08 6.69 3.82 6.80 4.75L7.88 4.75C7.80 3.36 6.68 2.10 4.21 2.10C1.89 2.10 0.73 3.15 0.73 4.66C0.73 7.84 7.07 6.69 7.07 8.96C7.07 10.05 6.09 10.60 4.52 10.60C2.91 10.60 1.61 10.05 1.54 8.71L0.45 8.71C0.59 10.37 1.71 11.59 4.45 11.59C6.73 11.59 8.12 10.64 8.12 8.92C8.12 5.68 1.75 6.80 1.75 4.65ZM23.56 3.22L23.56 2.21L16.74 2.21L16.74 11.48L23.56 11.48L23.56 10.47L17.79 10.47L17.79 7.35L22.95 7.35L22.95 6.33L17.79 6.33L17.79 3.22ZM50.04 2.21L46.77 6.61L43.46 2.21L42.24 2.21L42.24 11.48L43.29 11.48L43.29 3.81L46.77 8.22L50.20 3.81L50.20 11.48L51.25 11.48L51.25 2.21ZM64.68 2.21L63.36 2.21L59.43 11.48L60.59 11.48L61.73 8.79L66.32 8.79L67.45 11.48L68.61 11.48ZM62.13 7.83L64.02 3.30L65.91 7.83ZM90.92 2.21L90.92 8.37C90.92 9.32 90.68 10.57 89.00 10.57C87.68 10.57 87.05 9.73 86.94 9.00L85.85 9.00C85.97 10.26 86.94 11.59 88.94 11.59C91.18 11.59 91.97 10.04 91.97 8.41L91.97 2.21ZM107.97 3.22L107.97 2.21L101.15 2.21L101.15 11.48L107.97 11.48L107.97 10.47L102.20 10.47L102.20 7.35L107.35 7.35L107.35 6.33L102.20 6.33L102.20 3.22ZM132.48 6.75C133.14 6.45 133.73 5.85 133.73 4.66C133.73 3.54 132.99 2.21 130.80 2.21L126.64 2.21L126.64 11.48L131.04 11.48C133.15 11.48 134.20 10.43 134.20 9.04C134.20 7.66 133.27 7 132.48 6.75ZM127.69 3.21L130.91 3.21C132.19 3.21 132.68 3.98 132.68 4.75C132.68 5.88 131.77 6.36 130.80 6.36L127.69 6.36ZM131.15 10.49L127.69 10.49L127.69 7.31L131.04 7.31C132.51 7.31 133.15 8.09 133.15 8.96C133.15 9.93 132.43 10.49 131.15 10.49ZM143.96 7.92L147.18 7.92L149.42 11.48L150.67 11.48L148.23 7.74C149.27 7.50 150.47 6.90 150.47 5.11C150.47 3.35 149.25 2.21 147.35 2.21L142.91 2.21L142.91 11.48L143.96 11.48ZM143.96 3.21L147.22 3.21C148.54 3.21 149.42 3.93 149.42 5.11C149.42 6.55 148.16 6.93 147.17 6.93L143.96 6.93ZM166.10 3.22L166.10 2.21L159.28 2.21L159.28 11.48L166.10 11.48L166.10 10.47L160.33 10.47L160.33 7.35L165.48 7.35L165.48 6.33L160.33 6.33L160.33 3.22ZM178.95 2.21L177.63 2.21L173.70 11.48L174.86 11.48L175.99 8.79L180.59 8.79L181.72 11.48L182.88 11.48ZM176.40 7.83L178.29 3.30L180.18 7.83ZM198.74 2.21L197.26 2.21L192.11 7.04L192.11 2.21L191.06 2.21L191.06 11.48L192.11 11.48L192.11 8.44L194.03 6.65L197.65 11.48L198.97 11.48L194.80 5.94ZM213.72 3.22L213.72 2.21L207.03 2.21L207.03 11.48L208.08 11.48L208.08 7.46L213.11 7.46L213.11 6.44L208.08 6.44L208.08 3.22ZM225.60 2.21L224.28 2.21L220.35 11.48L221.51 11.48L222.64 8.79L227.23 8.79L228.37 11.48L229.53 11.48ZM223.05 7.83L224.94 3.30L226.83 7.83ZM238.32 4.65C238.32 4.03 238.69 3.08 240.79 3.08C242.48 3.08 243.26 3.82 243.38 4.75L244.45 4.75C244.37 3.36 243.25 2.10 240.79 2.10C238.46 2.10 237.30 3.15 237.30 4.66C237.30 7.84 243.64 6.69 243.64 8.96C243.64 10.05 242.66 10.60 241.09 10.60C239.48 10.60 238.18 10.05 238.11 8.71L237.02 8.71C237.16 10.37 238.28 11.59 241.02 11.59C243.31 11.59 244.69 10.64 244.69 8.92C244.69 5.68 238.32 6.80 238.32 4.65ZM259.90 2.21L252.38 2.21L252.38 3.22L255.61 3.22L255.61 11.48L256.66 11.48L256.66 3.22L259.90 3.22ZM273.60 4.63C273.60 3.37 272.75 2.10 270.73 2.10C268.88 2.10 267.72 3.42 267.64 4.96L268.63 4.96C268.72 3.98 269.44 3.07 270.82 3.07C272.19 3.07 272.61 3.93 272.61 4.63C272.61 6.36 270.27 6.62 270.27 8.92L271.29 8.92C271.29 6.94 273.60 6.82 273.60 4.63ZM270.10 10.05L270.10 11.48L271.46 11.48L271.46 10.05Z"></path></g></svg>