<svg data-v-fde0c5aa="" xmlns="http://www.w3.org/2000/svg" viewBox="0 0 300 300" class="font"><!----><defs data-v-fde0c5aa=""><linearGradient data-v-fde0c5aa="" gradientTransform="rotate(25)" id="2eb369eb-a7aa-4096-b083-cde6a43ff222" x1="0%" y1="0%" x2="100%" y2="0%"><stop data-v-fde0c5aa="" offset="0%" stop-color="#645B4E" stop-opacity="1"></stop><stop data-v-fde0c5aa="" offset="100%" stop-color="#DEC9AA" stop-opacity="1"></stop></linearGradient></defs><rect data-v-fde0c5aa="" fill="url(#2eb369eb-a7aa-4096-b083-cde6a43ff222)" x="0" y="0" width="300px" height="300px" class="logo-background-square"></rect><defs data-v-fde0c5aa=""><!----></defs><g data-v-fde0c5aa="" id="2fd4d55c-3892-4a28-bc2a-48562a384bfc" fill="#ffffff" transform="matrix(1.9834115004664166,0,0,1.9834115004664166,39.186801291902,134.0930398040899)"><path d="M9.38 10.19L9.38 10.19Q8.67 13.16 5.11 13.16L5.11 13.16L5.11 13.16Q3.65 13.16 2.60 12.60L2.60 12.60L2.60 12.60Q1.54 12.04 0.97 10.97L0.97 10.97L0.97 10.97Q0.41 9.90 0.41 8.40L0.41 8.40L0.41 8.40Q0.41 6.90 0.97 5.83L0.97 5.83L0.97 5.83Q1.54 4.76 2.60 4.20L2.60 4.20L2.60 4.20Q3.65 3.64 5.11 3.64L5.11 3.64L5.11 3.64Q6.73 3.64 7.88 4.33L7.88 4.33L7.88 4.33Q9.03 5.03 9.31 6.44L9.31 6.44L6.51 7.53L6.51 7.53Q6.40 6.68 6.10 6.38L6.10 6.38L6.10 6.38Q5.81 6.09 5.19 6.09L5.19 6.09L5.19 6.09Q4.47 6.09 4.10 6.65L4.10 6.65L4.10 6.65Q3.74 7.21 3.74 8.40L3.74 8.40L3.74 8.40Q3.74 9.59 4.09 10.15L4.09 10.15L4.09 10.15Q4.44 10.71 5.17 10.71L5.17 10.71L5.17 10.71Q5.82 10.71 6.12 10.42L6.12 10.42L6.12 10.42Q6.41 10.12 6.50 9.45L6.50 9.45L9.38 10.19ZM15.43 5.88L15.43 5.88Q16.46 5.88 17.05 6.50L17.05 6.50L17.05 6.50Q17.63 7.11 17.63 8.23L17.63 8.23L17.63 13.02L14.41 13.02L14.41 9.07L14.41 9.07Q14.41 8.61 14.29 8.43L14.29 8.43L14.29 8.43Q14.18 8.25 13.92 8.25L13.92 8.25L13.92 8.25Q13.57 8.25 13.40 8.51L13.40 8.51L13.40 8.51Q13.24 8.78 13.24 9.35L13.24 9.35L13.24 13.02L10.02 13.02L10.02 3.22L13.24 3.22L13.24 7.45L13.24 7.45Q13.52 6.68 14.08 6.28L14.08 6.28L14.08 6.28Q14.64 5.88 15.43 5.88L15.43 5.88ZM26.17 11.30L26.17 11.30Q26.40 11.30 26.52 11.24L26.52 11.24L26.26 12.88L26.26 12.88Q25.79 13.16 25.23 13.16L25.23 13.16L25.23 13.16Q24.37 13.16 23.80 12.86L23.80 12.86L23.80 12.86Q23.23 12.56 23.03 11.98L23.03 11.98L23.03 11.98Q22.71 12.53 22.09 12.84L22.09 12.84L22.09 12.84Q21.46 13.16 20.54 13.16L20.54 13.16L20.54 13.16Q19.45 13.16 18.91 12.73L18.91 12.73L18.91 12.73Q18.38 12.31 18.38 11.49L18.38 11.49L18.38 11.49Q18.38 10.61 19.01 10.09L19.01 10.09L19.01 10.09Q19.64 9.56 21.11 9.24L21.11 9.24L22.50 8.93L22.50 8.65L22.50 8.65Q22.50 8.33 22.34 8.15L22.34 8.15L22.34 8.15Q22.18 7.97 21.87 7.97L21.87 7.97L21.87 7.97Q21.53 7.97 21.34 8.15L21.34 8.15L21.34 8.15Q21.14 8.34 21.13 8.82L21.13 8.82L18.47 8.41L18.47 8.41Q18.58 7.21 19.47 6.54L19.47 6.54L19.47 6.54Q20.37 5.88 22.05 5.88L22.05 5.88L22.05 5.88Q23.91 5.88 24.80 6.59L24.80 6.59L24.80 6.59Q25.69 7.31 25.69 8.76L25.69 8.76L25.69 10.72L25.69 10.72Q25.69 11.30 26.17 11.30L26.17 11.30ZM21.90 11.41L21.90 11.41Q22.16 11.41 22.33 11.23L22.33 11.23L22.33 11.23Q22.50 11.06 22.50 10.72L22.50 10.72L22.50 10.05L22.04 10.19L22.04 10.19Q21.74 10.28 21.57 10.46L21.57 10.46L21.57 10.46Q21.41 10.65 21.41 10.92L21.41 10.92L21.41 10.92Q21.41 11.16 21.55 11.28L21.55 11.28L21.55 11.28Q21.69 11.41 21.90 11.41L21.90 11.41ZM31.32 3.22L34.54 3.22L34.54 13.02L31.64 13.02L31.54 11.63L31.54 11.63Q31.23 12.35 30.67 12.75L30.67 12.75L30.67 12.75Q30.11 13.16 29.33 13.16L29.33 13.16L29.33 13.16Q28.04 13.16 27.35 12.22L27.35 12.22L27.35 12.22Q26.66 11.28 26.66 9.56L26.66 9.56L26.66 9.56Q26.66 7.81 27.36 6.85L27.36 6.85L27.36 6.85Q28.07 5.88 29.34 5.88L29.34 5.88L29.34 5.88Q30.06 5.88 30.55 6.23L30.55 6.23L30.55 6.23Q31.04 6.58 31.32 7.20L31.32 7.20L31.32 3.22ZM30.63 10.91L30.63 10.91Q30.97 10.91 31.14 10.59L31.14 10.59L31.14 10.59Q31.32 10.28 31.32 9.58L31.32 9.58L31.32 9.46L31.32 9.46Q31.32 8.79 31.15 8.47L31.15 8.47L31.15 8.47Q30.98 8.15 30.63 8.15L30.63 8.15L30.63 8.15Q30.27 8.15 30.09 8.44L30.09 8.44L30.09 8.44Q29.90 8.74 29.90 9.52L29.90 9.52L29.90 9.52Q29.90 10.30 30.09 10.61L30.09 10.61L30.09 10.61Q30.27 10.91 30.63 10.91L30.63 10.91ZM39.27 5.88L39.27 5.88Q41.13 5.88 42.15 6.83L42.15 6.83L42.15 6.83Q43.18 7.78 43.18 9.52L43.18 9.52L43.18 9.52Q43.18 11.26 42.15 12.21L42.15 12.21L42.15 12.21Q41.13 13.16 39.27 13.16L39.27 13.16L39.27 13.16Q37.41 13.16 36.39 12.21L36.39 12.21L36.39 12.21Q35.36 11.26 35.36 9.52L35.36 9.52L35.36 9.52Q35.36 7.78 36.39 6.83L36.39 6.83L36.39 6.83Q37.41 5.88 39.27 5.88L39.27 5.88ZM39.27 8.05L39.27 8.05Q38.99 8.05 38.85 8.18L38.85 8.18L38.85 8.18Q38.71 8.30 38.65 8.61L38.65 8.61L38.65 8.61Q38.60 8.92 38.60 9.52L38.60 9.52L38.60 9.52Q38.60 10.12 38.65 10.43L38.65 10.43L38.65 10.43Q38.71 10.74 38.85 10.86L38.85 10.86L38.85 10.86Q38.99 10.99 39.27 10.99L39.27 10.99L39.27 10.99Q39.55 10.99 39.69 10.86L39.69 10.86L39.69 10.86Q39.83 10.74 39.89 10.43L39.89 10.43L39.89 10.43Q39.94 10.12 39.94 9.52L39.94 9.52L39.94 9.52Q39.94 8.92 39.89 8.61L39.89 8.61L39.89 8.61Q39.83 8.30 39.69 8.18L39.69 8.18L39.69 8.18Q39.55 8.05 39.27 8.05L39.27 8.05ZM46.24 3.64L45.79 7.80L43.74 7.80L43.74 3.64L46.24 3.64ZM50.47 13.16L50.47 13.16Q49.17 13.16 48.27 12.91L48.27 12.91L48.27 12.91Q47.38 12.67 46.76 12.12L46.76 12.12L48.17 10.42L48.17 10.42Q48.58 10.78 49.11 11.00L49.11 11.00L49.11 11.00Q49.64 11.23 50.23 11.23L50.23 11.23L50.23 11.23Q50.50 11.23 50.67 11.18L50.67 11.18L50.67 11.18Q50.85 11.13 50.85 11.02L50.85 11.02L50.85 11.02Q50.85 10.89 50.61 10.79L50.61 10.79L50.61 10.79Q50.37 10.68 49.80 10.57L49.80 10.57L49.80 10.57Q48.29 10.28 47.59 9.72L47.59 9.72L47.59 9.72Q46.90 9.17 46.90 8.32L46.90 8.32L46.90 8.32Q46.90 7.70 47.31 7.15L47.31 7.15L47.31 7.15Q47.73 6.59 48.58 6.24L48.58 6.24L48.58 6.24Q49.43 5.88 50.69 5.88L50.69 5.88L50.69 5.88Q51.93 5.88 52.76 6.17L52.76 6.17L52.76 6.17Q53.59 6.47 54.07 6.90L54.07 6.90L52.75 8.46L52.75 8.46Q52.11 7.81 50.85 7.81L50.85 7.81L50.85 7.81Q50.47 7.81 50.30 7.88L50.30 7.88L50.30 7.88Q50.13 7.95 50.13 8.06L50.13 8.06L50.13 8.06Q50.13 8.23 50.99 8.34L50.99 8.34L50.99 8.34Q52.60 8.57 53.34 9.12L53.34 9.12L53.34 9.12Q54.08 9.67 54.08 10.64L54.08 10.64L54.08 10.64Q54.08 11.73 53.19 12.45L53.19 12.45L53.19 12.45Q52.29 13.16 50.47 13.16L50.47 13.16ZM64.13 13.02L62.41 9.56L61.66 10.60L61.66 13.02L58.39 13.02L58.39 3.78L61.66 3.78L61.66 7.22L64.06 3.78L67.54 3.78L64.71 7.45L67.79 13.02L64.13 13.02ZM69.89 5.57L69.89 5.57Q68.94 5.57 68.54 5.26L68.54 5.26L68.54 5.26Q68.14 4.96 68.14 4.23L68.14 4.23L68.14 4.23Q68.14 3.50 68.54 3.19L68.54 3.19L68.54 3.19Q68.94 2.88 69.89 2.88L69.89 2.88L69.89 2.88Q70.84 2.88 71.24 3.19L71.24 3.19L71.24 3.19Q71.64 3.50 71.64 4.23L71.64 4.23L71.64 4.23Q71.64 4.96 71.24 5.26L71.24 5.26L71.24 5.26Q70.84 5.57 69.89 5.57L69.89 5.57ZM71.50 6.02L71.50 13.02L68.28 13.02L68.28 6.02L71.50 6.02ZM78.08 10.86L78.22 12.68L78.22 12.68Q77.87 12.89 77.27 13.03L77.27 13.03L77.27 13.03Q76.68 13.16 76.13 13.16L76.13 13.16L76.13 13.16Q74.62 13.16 73.88 12.58L73.88 12.58L73.88 12.58Q73.14 12.00 73.14 10.67L73.14 10.67L73.14 8.19L72.06 8.19L72.06 6.02L73.14 6.02L73.14 4.54L76.36 3.64L76.36 6.02L78.12 6.02L78.12 8.19L76.36 8.19L76.36 10.16L76.36 10.16Q76.36 10.64 76.56 10.84L76.56 10.84L76.56 10.84Q76.76 11.05 77.20 11.05L77.20 11.05L77.20 11.05Q77.71 11.05 78.08 10.86L78.08 10.86ZM82.43 5.88L82.43 5.88Q84.38 5.88 85.24 6.57L85.24 6.57L85.24 6.57Q86.10 7.27 86.13 8.26L86.13 8.26L83.16 9.13L83.16 9.13Q83.20 8.05 82.60 8.05L82.60 8.05L82.60 8.05Q82.17 8.05 81.98 8.38L81.98 8.38L81.98 8.38Q81.79 8.71 81.79 9.56L81.79 9.56L81.79 9.56Q81.79 10.40 81.99 10.70L81.99 10.70L81.99 10.70Q82.19 10.99 82.59 10.99L82.59 10.99L82.59 10.99Q82.88 10.99 83.03 10.76L83.03 10.76L83.03 10.76Q83.19 10.53 83.22 10.07L83.22 10.07L86.10 10.96L86.10 10.96Q86.10 11.56 85.69 12.06L85.69 12.06L85.69 12.06Q85.27 12.56 84.48 12.86L84.48 12.86L84.48 12.86Q83.69 13.16 82.60 13.16L82.60 13.16L82.60 13.16Q80.61 13.16 79.58 12.22L79.58 12.22L79.58 12.22Q78.55 11.28 78.55 9.52L78.55 9.52L78.55 9.52Q78.55 7.78 79.57 6.83L79.57 6.83L79.57 6.83Q80.58 5.88 82.43 5.88L82.43 5.88ZM92.29 5.88L92.29 5.88Q93.32 5.88 93.91 6.50L93.91 6.50L93.91 6.50Q94.49 7.11 94.49 8.23L94.49 8.23L94.49 13.02L91.27 13.02L91.27 9.07L91.27 9.07Q91.27 8.61 91.15 8.43L91.15 8.43L91.15 8.43Q91.04 8.25 90.78 8.25L90.78 8.25L90.78 8.25Q90.43 8.25 90.27 8.51L90.27 8.51L90.27 8.51Q90.10 8.78 90.10 9.35L90.10 9.35L90.10 13.02L86.88 13.02L86.88 3.22L90.10 3.22L90.10 7.45L90.10 7.45Q90.38 6.68 90.94 6.28L90.94 6.28L90.94 6.28Q91.50 5.88 92.29 5.88L92.29 5.88ZM102.90 9.30L102.90 9.30Q102.90 9.83 102.83 10.14L102.83 10.14L98.38 10.14L98.38 10.14Q98.45 10.65 98.67 10.84L98.67 10.84L98.67 10.84Q98.90 11.02 99.34 11.02L99.34 11.02L99.34 11.02Q100.03 11.02 100.18 10.42L100.18 10.42L102.77 11.12L102.77 11.12Q102.54 12.12 101.61 12.64L101.61 12.64L101.61 12.64Q100.67 13.16 99.34 13.16L99.34 13.16L99.34 13.16Q97.36 13.16 96.33 12.22L96.33 12.22L96.33 12.22Q95.30 11.28 95.30 9.52L95.30 9.52L95.30 9.52Q95.30 7.78 96.31 6.83L96.31 6.83L96.31 6.83Q97.33 5.88 99.18 5.88L99.18 5.88L99.18 5.88Q100.98 5.88 101.94 6.80L101.94 6.80L101.94 6.80Q102.90 7.73 102.90 9.30L102.90 9.30ZM99.19 8.01L99.19 8.01Q98.83 8.01 98.63 8.22L98.63 8.22L98.63 8.22Q98.43 8.43 98.38 8.95L98.38 8.95L99.89 8.95L99.89 8.95Q99.85 8.47 99.69 8.24L99.69 8.24L99.69 8.24Q99.53 8.01 99.19 8.01L99.19 8.01ZM109.13 5.88L109.13 5.88Q110.17 5.88 110.75 6.50L110.75 6.50L110.75 6.50Q111.33 7.11 111.33 8.23L111.33 8.23L111.33 13.02L108.11 13.02L108.11 9.07L108.11 9.07Q108.11 8.61 108.00 8.43L108.00 8.43L108.00 8.43Q107.88 8.26 107.62 8.26L107.62 8.26L107.62 8.26Q107.27 8.26 107.11 8.53L107.11 8.53L107.11 8.53Q106.95 8.79 106.95 9.35L106.95 9.35L106.95 13.02L103.73 13.02L103.73 6.02L106.62 6.02L106.69 7.55L106.69 7.55Q107.00 6.73 107.62 6.31L107.62 6.31L107.62 6.31Q108.23 5.88 109.13 5.88L109.13 5.88Z"></path></g><!----><!----></svg>